{
    "asset" : {
        "generator" : "Khronos glTF Blender I/O v1.3.48",
        "version" : "2.0"
    },
    "scene" : 0,
    "scenes" : [
        {
            "name" : "Scene",
            "nodes" : [
                0,
                1,
                2
            ]
        }
    ],
    "nodes" : [
        {
            "mesh" : 0,
            "name" : "Plane",
            "translation" : [
                1.8429617881774902,
                0.6763640642166138,
                0.13749875128269196
            ]
        },
        {
            "mesh" : 1,
            "name" : "Plane.001",
            "translation" : [
                -0.05516389384865761,
                2.1999125480651855,
                0.14239978790283203
            ]
        },
        {
            "mesh" : 2,
            "name" : "Circle.001",
            "translation" : [
                1.850100040435791,
                0.6616166830062866,
                0.13783954083919525
            ]
        }
    ],
    "animations" : [
        {
            "channels" : [
                {
                    "sampler" : 0,
                    "target" : {
                        "node" : 0,
                        "path" : "translation"
                    }
                }
            ],
            "name" : "PlaneAction.001",
            "samplers" : [
                {
                    "input" : 12,
                    "interpolation" : "LINEAR",
                    "output" : 13
                }
            ]
        },
        {
            "channels" : [
                {
                    "sampler" : 0,
                    "target" : {
                        "node" : 1,
                        "path" : "translation"
                    }
                }
            ],
            "name" : "Plane.001Action",
            "samplers" : [
                {
                    "input" : 14,
                    "interpolation" : "STEP",
                    "output" : 15
                }
            ]
        },
        {
            "channels" : [
                {
                    "sampler" : 0,
                    "target" : {
                        "node" : 2,
                        "path" : "translation"
                    }
                }
            ],
            "name" : "Circle.001Action.001",
            "samplers" : [
                {
                    "input" : 12,
                    "interpolation" : "LINEAR",
                    "output" : 16
                }
            ]
        }
    ],
    "materials" : [
        {
            "doubleSided" : true,
            "emissiveFactor" : [
                0,
                0,
                0
            ],
            "name" : "hexa",
            "pbrMetallicRoughness" : {
                "metallicFactor" : 0
            }
        },
        {
            "doubleSided" : true,
            "emissiveFactor" : [
                0,
                0,
                0
            ],
            "name" : "redteam",
            "pbrMetallicRoughness" : {
                "metallicFactor" : 0
            }
        },
        {
            "doubleSided" : true,
            "emissiveFactor" : [
                0,
                0,
                0
            ],
            "name" : "gasmask",
            "pbrMetallicRoughness" : {
                "metallicFactor" : 0
            }
        }
    ],
    "meshes" : [
        {
            "name" : "Plane",
            "primitives" : [
                {
                    "attributes" : {
                        "POSITION" : 0,
                        "NORMAL" : 1,
                        "TEXCOORD_0" : 2
                    },
                    "indices" : 3,
                    "material" : 0
                }
            ]
        },
        {
            "name" : "Plane.001",
            "primitives" : [
                {
                    "attributes" : {
                        "POSITION" : 4,
                        "NORMAL" : 5,
                        "TEXCOORD_0" : 6
                    },
                    "indices" : 7,
                    "material" : 1
                }
            ]
        },
        {
            "name" : "Circle.002",
            "primitives" : [
                {
                    "attributes" : {
                        "POSITION" : 8,
                        "NORMAL" : 9,
                        "TEXCOORD_0" : 10
                    },
                    "indices" : 11,
                    "material" : 2
                }
            ]
        }
    ],
    "accessors" : [
        {
            "bufferView" : 0,
            "componentType" : 5126,
            "count" : 628,
            "max" : [
                0.39505231380462646,
                0.3945753574371338,
                0.06664322316646576
            ],
            "min" : [
                -0.3943887948989868,
                -0.39394187927246094,
                -0.06664343923330307
            ],
            "type" : "VEC3"
        },
        {
            "bufferView" : 1,
            "componentType" : 5126,
            "count" : 628,
            "type" : "VEC3"
        },
        {
            "bufferView" : 2,
            "componentType" : 5126,
            "count" : 628,
            "type" : "VEC2"
        },
        {
            "bufferView" : 3,
            "componentType" : 5123,
            "count" : 1860,
            "type" : "SCALAR"
        },
        {
            "bufferView" : 4,
            "componentType" : 5126,
            "count" : 726,
            "max" : [
                0.6883225440979004,
                0.09852516651153564,
                0.05504028499126434
            ],
            "min" : [
                -0.5240545868873596,
                -0.10682916641235352,
                -0.05503968149423599
            ],
            "type" : "VEC3"
        },
        {
            "bufferView" : 5,
            "componentType" : 5126,
            "count" : 726,
            "type" : "VEC3"
        },
        {
            "bufferView" : 6,
            "componentType" : 5126,
            "count" : 726,
            "type" : "VEC2"
        },
        {
            "bufferView" : 7,
            "componentType" : 5123,
            "count" : 1692,
            "type" : "SCALAR"
        },
        {
            "bufferView" : 8,
            "componentType" : 5126,
            "count" : 840,
            "max" : [
                0.14957073330879211,
                0.21151737868785858,
                0.11286384612321854
            ],
            "min" : [
                -0.1496744155883789,
                -0.18059296905994415,
                -0.11286363005638123
            ],
            "type" : "VEC3"
        },
        {
            "bufferView" : 9,
            "componentType" : 5126,
            "count" : 840,
            "type" : "VEC3"
        },
        {
            "bufferView" : 10,
            "componentType" : 5126,
            "count" : 840,
            "type" : "VEC2"
        },
        {
            "bufferView" : 11,
            "componentType" : 5123,
            "count" : 2502,
            "type" : "SCALAR"
        },
        {
            "bufferView" : 12,
            "componentType" : 5126,
            "count" : 262,
            "max" : [
                10.916666666666666
            ],
            "min" : [
                0.041666666666666664
            ],
            "type" : "SCALAR"
        },
        {
            "bufferView" : 13,
            "componentType" : 5126,
            "count" : 262,
            "type" : "VEC3"
        },
        {
            "bufferView" : 14,
            "componentType" : 5126,
            "count" : 1,
            "max" : [
                0.041666666666666664
            ],
            "min" : [
                0.041666666666666664
            ],
            "type" : "SCALAR"
        },
        {
            "bufferView" : 15,
            "componentType" : 5126,
            "count" : 1,
            "type" : "VEC3"
        },
        {
            "bufferView" : 16,
            "componentType" : 5126,
            "count" : 262,
            "type" : "VEC3"
        }
    ],
    "bufferViews" : [
        {
            "buffer" : 0,
            "byteLength" : 7536,
            "byteOffset" : 0
        },
        {
            "buffer" : 0,
            "byteLength" : 7536,
            "byteOffset" : 7536
        },
        {
            "buffer" : 0,
            "byteLength" : 5024,
            "byteOffset" : 15072
        },
        {
            "buffer" : 0,
            "byteLength" : 3720,
            "byteOffset" : 20096
        },
        {
            "buffer" : 0,
            "byteLength" : 8712,
            "byteOffset" : 23816
        },
        {
            "buffer" : 0,
            "byteLength" : 8712,
            "byteOffset" : 32528
        },
        {
            "buffer" : 0,
            "byteLength" : 5808,
            "byteOffset" : 41240
        },
        {
            "buffer" : 0,
            "byteLength" : 3384,
            "byteOffset" : 47048
        },
        {
            "buffer" : 0,
            "byteLength" : 10080,
            "byteOffset" : 50432
        },
        {
            "buffer" : 0,
            "byteLength" : 10080,
            "byteOffset" : 60512
        },
        {
            "buffer" : 0,
            "byteLength" : 6720,
            "byteOffset" : 70592
        },
        {
            "buffer" : 0,
            "byteLength" : 5004,
            "byteOffset" : 77312
        },
        {
            "buffer" : 0,
            "byteLength" : 1048,
            "byteOffset" : 82316
        },
        {
            "buffer" : 0,
            "byteLength" : 3144,
            "byteOffset" : 83364
        },
        {
            "buffer" : 0,
            "byteLength" : 4,
            "byteOffset" : 86508
        },
        {
            "buffer" : 0,
            "byteLength" : 12,
            "byteOffset" : 86512
        },
        {
            "buffer" : 0,
            "byteLength" : 3144,
            "byteOffset" : 86524
        }
    ],
    "buffers" : [
        {
            "byteLength" : 89668,
            "uri" : "data:application/octet-stream;base64,"
        }
    ]
}
